<?xml version="1.0" standalone="no"?>
<!DOCTYPE svg PUBLIC "-//W3C//DTD SVG 20010904//EN"
 "http://www.w3.org/TR/2001/REC-SVG-20010904/DTD/svg10.dtd">
<svg version="1.0" xmlns="http://www.w3.org/2000/svg"
 width="1587.000000pt" height="1587.000000pt" viewBox="0 0 1587.000000 1587.000000"
 preserveAspectRatio="xMidYMid meet">

<g transform="translate(0.000000,1587.000000) scale(0.100000,-0.100000)"
fill="#000000" stroke="none">
<path d="M0 7935 l0 -7935 7935 0 7935 0 0 7935 0 7935 -7935 0 -7935 0 0
-7935z m6860 4545 c891 -30 1593 -208 2210 -563 664 -382 1147 -975 1363
-1677 153 -493 188 -1092 98 -1635 -177 -1068 -861 -1892 -1918 -2314 -239
-95 -474 -165 -745 -221 -61 -13 -108 -28 -108 -34 0 -15 49 -141 89 -230 115
-253 317 -500 539 -660 234 -167 567 -281 926 -317 171 -17 576 -6 721 20 389
68 688 206 941 435 321 291 527 770 599 1390 31 267 35 615 35 3069 l0 2467
1030 0 1030 0 0 -2497 c0 -2482 -5 -2877 -35 -3183 -102 -1021 -445 -1816
-1041 -2416 -250 -251 -529 -452 -859 -619 -452 -229 -914 -358 -1530 -427
-175 -19 -252 -22 -620 -22 -368 0 -445 3 -625 22 -778 86 -1370 286 -1900
643 -531 358 -939 855 -1201 1464 -68 159 -169 467 -210 638 l-32 137 -384 0
-383 0 0 -1240 0 -1240 -1045 0 -1045 0 0 4503 c0 2477 3 4507 7 4510 10 11
3780 8 4093 -3z"/>
<path d="M4850 9215 l0 -1565 325 0 325 0 0 1565 0 1565 -325 0 -325 0 0
-1565z"/>
<path d="M7590 9220 l0 -1390 58 26 c284 125 523 349 662 621 151 294 198 738
119 1128 -90 448 -360 782 -791 982 l-48 22 0 -1389z"/>
</g>
</svg>
